<?xml version="1.0" standalone="no"?>
<!DOCTYPE svg PUBLIC "-//W3C//DTD SVG 20010904//EN"
 "http://www.w3.org/TR/2001/REC-SVG-20010904/DTD/svg10.dtd">
<svg version="1.0" xmlns="http://www.w3.org/2000/svg"
 width="512.000000pt" height="512.000000pt" viewBox="0 0 512.000000 512.000000"
 preserveAspectRatio="xMidYMid meet">
<metadata>
Created by potrace 1.11, written by Peter Selinger 2001-2013
</metadata>
<g transform="translate(0.000000,512.000000) scale(0.100000,-0.100000)"
fill="#000000" stroke="none">
<path d="M3055 4974 c-30 -5 -263 -52 -385 -78 -36 -8 -83 -21 -105 -29 -22
-8 -74 -25 -115 -37 -151 -45 -461 -151 -610 -210 -85 -33 -122 -51 -167 -81
-23 -16 -52 -33 -65 -38 -62 -23 -200 -185 -223 -261 -4 -14 -11 -29 -15 -35
-16 -20 -49 -131 -59 -200 -15 -104 -30 -212 -36 -280 -17 -171 -71 -365 -128
-465 -34 -59 -114 -139 -146 -146 -47 -10 -53 -14 -49 -31 2 -9 27 -36 56 -60
29 -24 51 -43 50 -44 -2 0 -16 -2 -32 -4 -59 -8 -60 -42 -4 -125 33 -50 39
-66 30 -79 -6 -9 -21 -35 -32 -58 -12 -23 -32 -59 -46 -78 -13 -20 -33 -53
-43 -74 -25 -48 -132 -195 -180 -244 -87 -92 -237 -171 -456 -239 -197 -62
-225 -73 -225 -87 0 -8 14 -65 31 -126 109 -383 309 -738 594 -1051 107 -118
184 -182 196 -163 6 11 9 8 9 -11 1 -30 74 -91 254 -211 572 -381 1286 -514
1960 -364 86 19 83 15 129 155 14 41 37 106 51 145 14 38 26 78 26 87 0 30 14
20 32 -23 22 -52 44 -49 76 9 13 23 29 42 36 42 7 0 43 -54 81 -120 38 -66 74
-120 80 -120 17 0 196 94 288 152 558 349 959 897 1122 1533 39 153 71 343 59
355 -17 17 -202 51 -246 46 -108 -13 -265 -91 -456 -226 -23 -16 -45 -30 -48
-30 -3 0 -24 -15 -47 -34 -41 -33 -189 -130 -251 -165 -147 -83 -291 -152
-329 -160 -54 -10 -125 11 -180 53 -19 14 -37 26 -40 26 -7 0 -32 19 -73 56
-59 53 -113 163 -135 279 -8 44 -13 128 -12 225 2 169 6 222 25 318 9 50 15
62 27 58 9 -2 35 -12 58 -20 92 -34 261 -23 358 24 57 27 163 111 120 95 -86
-33 -243 -56 -325 -49 -113 10 -127 32 -89 140 11 32 21 82 22 109 2 42 -3 58
-32 100 -53 77 -95 125 -108 125 -7 0 -13 3 -13 8 0 4 -21 21 -48 37 -46 30
-49 30 -192 31 l-145 0 -11 45 c-17 64 -16 312 1 379 19 74 63 167 100 210
128 151 299 265 440 295 71 14 183 7 209 -14 14 -12 16 -10 16 13 0 48 -30
214 -51 281 -18 59 -58 151 -93 213 -20 35 -115 135 -148 154 -91 56 -240 87
-343 72z m-128 -445 c42 -26 79 -75 88 -116 13 -63 8 -200 -10 -255 -22 -65
-83 -172 -124 -215 -45 -47 -135 -185 -167 -258 -16 -35 -34 -65 -40 -65 -6 0
-16 11 -22 25 -14 30 -33 32 -50 4 -17 -27 -8 -53 33 -86 34 -28 34 -28 26
-88 -20 -148 -6 -436 25 -514 12 -30 14 -45 6 -53 -28 -28 -284 -7 -373 30
-60 26 -82 35 -96 38 -22 4 -163 97 -163 107 0 13 -52 57 -67 57 -7 0 -13 5
-13 11 0 6 -13 23 -30 38 -16 14 -43 52 -60 83 -34 66 -40 144 -16 203 8 19
14 35 13 36 -1 0 -24 3 -52 6 -27 3 -59 12 -72 20 -48 32 -52 110 -13 236 17
53 34 84 93 171 14 21 17 31 9 34 -23 7 -41 32 -37 52 9 48 49 116 92 159 82
79 120 96 153 66 14 -13 20 -11 50 16 69 59 426 245 520 270 116 31 236 26
297 -12z"/>
<path d="M2037 4154 c-15 -16 -6 -54 18 -73 20 -15 25 -27 23 -53 -8 -110 67
-187 149 -153 116 49 82 275 -42 275 -28 0 -75 -20 -75 -32 0 -17 -29 -7 -47
18 -10 14 -22 22 -26 18z m136 -84 c17 -29 17 -30 -5 -60 l-23 -31 -22 28
c-28 34 -28 34 -2 67 26 33 31 33 52 -4z m37 -136 c0 -6 -6 -17 -14 -23 -22
-18 -41 21 -25 51 11 21 12 21 25 3 8 -10 14 -24 14 -31z"/>
</g>
</svg>
